<svg xmlns="http://www.w3.org/2000/svg" width="18.3" height="24.3" viewBox="0 0 18.3 24.3">
  <path id="FontAwsome_clipboard_" data-name="FontAwsome (clipboard)" d="M18,5.25v16.5A2.25,2.25,0,0,1,15.75,24H2.25A2.25,2.25,0,0,1,0,21.75V5.25A2.25,2.25,0,0,1,2.25,3H6a3,3,0,0,1,6,0h3.75A2.25,2.25,0,0,1,18,5.25ZM9,1.875A1.125,1.125,0,1,0,10.125,3,1.125,1.125,0,0,0,9,1.875m4.5,5.344V6.281A.281.281,0,0,0,13.219,6H4.781a.281.281,0,0,0-.281.281v.938a.281.281,0,0,0,.281.281h8.438A.281.281,0,0,0,13.5,7.219Z" transform="translate(0.15 0.15)" fill="#e1c497" stroke="#a47b51" stroke-width="0.3"/>
</svg>
