<svg xmlns="http://www.w3.org/2000/svg" width="24.3" height="24.3" viewBox="0 0 24.3 24.3">
  <path id="FontAwsome_check-circle_" data-name="FontAwsome (check-circle)" d="M32,20A12,12,0,1,1,20,8,12,12,0,0,1,32,20ZM18.612,26.354l8.9-8.9a.774.774,0,0,0,0-1.095L26.42,15.261a.774.774,0,0,0-1.095,0l-7.261,7.261-3.39-3.39a.774.774,0,0,0-1.095,0l-1.095,1.095a.774.774,0,0,0,0,1.095l5.032,5.032a.774.774,0,0,0,1.095,0Z" transform="translate(-7.85 -7.85)" fill="#956639" stroke="#707070" stroke-width="0.3"/>
</svg>
