<svg xmlns="http://www.w3.org/2000/svg" width="31" height="31" viewBox="0 0 31 31">
  <g id="emoji_events-24px" transform="translate(0 0.133)">
    <g id="Bounding_Box">
      <rect id="Rectangle_340" data-name="Rectangle 340" width="31" height="31" transform="translate(0 -0.133)" fill="none"/>
    </g>
    <g id="Flat" transform="translate(3.858 3.858)">
      <g id="Group_511" data-name="Group 511">
        <path id="Path_6501" data-name="Path 6501" d="M23.578,5.572H21.006V3H8.144V5.572H5.572A2.58,2.58,0,0,0,3,8.144V9.431a6.42,6.42,0,0,0,5.646,6.353,6.443,6.443,0,0,0,4.643,3.807v3.987H8.144V26.15H21.006V23.578H15.861V19.591A6.443,6.443,0,0,0,20.5,15.784,6.42,6.42,0,0,0,26.15,9.431V8.144A2.58,2.58,0,0,0,23.578,5.572ZM5.572,9.431V8.144H8.144v4.913A3.872,3.872,0,0,1,5.572,9.431Zm9,7.717a3.87,3.87,0,0,1-3.858-3.858V5.572h7.717v7.717A3.87,3.87,0,0,1,14.575,17.147Zm9-7.717a3.872,3.872,0,0,1-2.572,3.627V8.144h2.572Z" transform="translate(-3 -3)" fill="#fff" stroke="#97683a" stroke-width="0.3"/>
      </g>
    </g>
  </g>
</svg>
