<svg xmlns="http://www.w3.org/2000/svg" width="20.982" height="15.811" viewBox="0 0 20.982 15.811">
  <g id="outline-contact_mail-24px" transform="translate(0.19 -2.502)">
    <g id="Outline" transform="translate(-0.04 2.652)">
      <g id="Group_176" data-name="Group 176">
        <path id="Path_2714" data-name="Path 2714" d="M18.958,3H1.723A1.729,1.729,0,0,0,0,4.723V16.788a1.729,1.729,0,0,0,1.723,1.723H18.958a1.721,1.721,0,0,0,1.715-1.723l.009-12.064A1.729,1.729,0,0,0,18.958,3Zm0,13.788H1.723V4.723H18.958Z" transform="translate(0 -3)" fill="#e1c497" stroke="#a1784c" stroke-width="0.3"/>
        <path id="Path_2715" data-name="Path 2715" d="M20.032,6H14v4.309h6.032ZM19.17,7.723,17.016,9.232,14.862,7.723V6.862L17.016,8.37,19.17,6.862Z" transform="translate(-1.936 -3.415)" fill="#e1c497" stroke="#a1784c" stroke-width="0.3"/>
        <path id="Path_2716" data-name="Path 2716" d="M8.585,11.17A2.585,2.585,0,1,0,6,8.585,2.593,2.593,0,0,0,8.585,11.17Zm0-3.447a.862.862,0,1,1-.862.862A.864.864,0,0,1,8.585,7.723Z" transform="translate(-0.83 -3.415)" fill="#e1c497" stroke="#a1784c" stroke-width="0.3"/>
        <path id="Path_2717" data-name="Path 2717" d="M13.341,16.1c0-2.154-3.421-3.085-5.17-3.085S3,13.941,3,16.1V17.31H13.341Zm-8.2-.508a6.129,6.129,0,0,1,3.033-.862,6.068,6.068,0,0,1,3.033.862Z" transform="translate(-0.415 -4.384)" fill="#e1c497" stroke="#a1784c" stroke-width="0.3"/>
      </g>
    </g>
  </g>
</svg>
