<svg xmlns="http://www.w3.org/2000/svg" width="15.301" height="16.31" viewBox="0 0 15.301 16.31">
  <path id="FontAwsome_shield-alt_" data-name="FontAwsome (shield-alt)" d="M30.079,2.64l-6-2.5a1.5,1.5,0,0,0-1.153,0l-6,2.5A1.5,1.5,0,0,0,16,4.024c0,6.2,3.578,10.491,6.922,11.885a1.5,1.5,0,0,0,1.153,0C26.754,14.794,31,10.941,31,4.024A1.5,1.5,0,0,0,30.079,2.64ZM23.5,13.972l0-11.907L29,4.356C28.895,9.087,26.432,12.516,23.5,13.972Z" transform="translate(-15.85 0.13)" fill="#e1c497" stroke="#a1784c" stroke-width="0.3"/>
</svg>
