<svg xmlns="http://www.w3.org/2000/svg" width="23.649" height="21.3" viewBox="0 0 23.649 21.3">
  <g id="storefront-24px" transform="translate(-2.179 -3.35)">
    <g id="Icon" transform="translate(2.34 3.5)">
      <g id="Group_509" data-name="Group 509">
        <path id="Path_6497" data-name="Path 6497" d="M25.216,9.872l-1.225-5.1A2.292,2.292,0,0,0,21.762,3H5.557A2.291,2.291,0,0,0,3.341,4.773l-1.225,5.1a3.938,3.938,0,0,0,.723,3.36,4.472,4.472,0,0,0,.327.338v8.1A2.34,2.34,0,0,0,5.5,24H21.832a2.34,2.34,0,0,0,2.333-2.333v-8.1a4.315,4.315,0,0,0,.327-.327A3.924,3.924,0,0,0,25.216,9.872Zm-3.488-4.55,1.225,5.1a1.582,1.582,0,0,1-.292,1.365,1.369,1.369,0,0,1-1.1.548A1.458,1.458,0,0,1,20.152,11l-.677-5.67Zm-6.9.012h2.287l.63,5.273a1.568,1.568,0,0,1-.385,1.248,1.391,1.391,0,0,1-1.108.478A1.484,1.484,0,0,1,14.832,10.8ZM9.571,10.607l.642-5.273H12.5v5.472a1.5,1.5,0,0,1-1.505,1.528,1.4,1.4,0,0,1-1.038-.478A1.657,1.657,0,0,1,9.571,10.607ZM4.379,10.42,5.557,5.333h2.3L7.179,11a1.467,1.467,0,0,1-1.412,1.33,1.343,1.343,0,0,1-1.085-.548A1.543,1.543,0,0,1,4.379,10.42ZM5.5,21.667V14.632a2.112,2.112,0,0,0,.268.035,3.651,3.651,0,0,0,2.613-1.108,3.752,3.752,0,0,0,2.7,1.108,3.7,3.7,0,0,0,2.6-1.085,3.824,3.824,0,0,0,2.672,1.085,3.7,3.7,0,0,0,2.613-1.108,3.651,3.651,0,0,0,2.613,1.108,2.112,2.112,0,0,0,.268-.035v7.035Z" transform="translate(-2.005 -3)" fill="#e1c497" stroke="#707070" stroke-width="0.3"/>
      </g>
    </g>
  </g>
</svg>
