<?xml version="1.0" standalone="no"?>
<!DOCTYPE svg PUBLIC "-//W3C//DTD SVG 20010904//EN"
 "http://www.w3.org/TR/2001/REC-SVG-20010904/DTD/svg10.dtd">
<svg version="1.0" xmlns="http://www.w3.org/2000/svg"
 width="512.000000pt" height="512.000000pt" viewBox="0 0 512.000000 512.000000"
 preserveAspectRatio="xMidYMid meet">
<metadata>
Created by potrace 1.16, written by Peter Selinger 2001-2019
</metadata>
<g transform="translate(0.000000,512.000000) scale(0.100000,-0.100000)"
fill="#000000" stroke="none">
<path d="M2341 4690 c-117 -236 -215 -430 -218 -430 -18 0 -920 -132 -933
-136 -10 -4 95 -113 330 -343 l345 -338 -82 -474 c-44 -261 -80 -475 -79 -476
1 -1 194 99 429 222 l427 225 427 -225 c235 -123 428 -223 429 -222 1 1 -35
215 -79 476 l-82 474 345 338 c235 230 340 339 330 343 -13 4 -915 136 -933
136 -3 0 -101 194 -218 430 -117 237 -215 430 -219 430 -4 0 -102 -193 -219
-430z"/>
<path d="M1020 2146 l0 -443 774 -312 774 -311 704 286 c386 157 731 297 766
311 l62 25 0 444 c0 244 -2 444 -3 444 -2 0 -345 -137 -762 -305 -418 -168
-766 -305 -775 -305 -9 0 -357 137 -775 305 -417 168 -760 305 -762 305 -1 0
-3 -200 -3 -444z"/>
<path d="M1020 1057 l0 -443 768 -307 c422 -169 774 -307 782 -307 8 0 356
138 772 307 l758 308 0 443 c0 243 -3 442 -6 442 -3 0 -349 -138 -770 -306
l-764 -306 -764 306 c-421 168 -767 306 -770 306 -3 0 -6 -199 -6 -443z"/>
</g>
</svg>
