<svg xmlns="http://www.w3.org/2000/svg" width="19.339" height="17.227" viewBox="0 0 19.339 17.227">
  <path id="FontAwsome_edit_" data-name="FontAwsome (edit)" d="M13.3,11.328l1.058-1.058a.266.266,0,0,1,.453.188v4.806a1.587,1.587,0,0,1-1.587,1.587H1.587A1.587,1.587,0,0,1,0,15.265V3.63A1.587,1.587,0,0,1,1.587,2.043h9.041a.266.266,0,0,1,.188.453L9.758,3.554a.262.262,0,0,1-.188.076H1.587V15.265H13.222V11.513A.26.26,0,0,1,13.3,11.328Zm5.176-6.671-8.68,8.68-2.988.331A1.366,1.366,0,0,1,5.3,12.161l.331-2.988L14.31.493a1.929,1.929,0,0,1,2.734,0l1.428,1.428a1.936,1.936,0,0,1,0,2.737ZM15.209,5.679,13.288,3.759,7.147,9.9l-.241,2.159,2.159-.241Zm2.142-2.635L15.923,1.617a.345.345,0,0,0-.489,0L14.412,2.638l1.921,1.921,1.021-1.021A.352.352,0,0,0,17.351,3.045Z" transform="translate(0.15 0.225)" fill="#e1c497" stroke="#a1784c" stroke-width="0.3"/>
</svg>
