<svg xmlns="http://www.w3.org/2000/svg" width="27.301" height="24.3" viewBox="0 0 27.301 24.3">
  <path id="FontAwsome_hand-holding-usd_" data-name="FontAwsome (hand-holding-usd)" d="M12.706,6.764l2.544.67a.4.4,0,0,1,.311.38.413.413,0,0,1-.427.394H13.464a1.406,1.406,0,0,1-.525-.1.672.672,0,0,0-.717.094l-.891.82a.548.548,0,0,0-.105.125.535.535,0,0,0,.182.738,3.927,3.927,0,0,0,1.618.539v.83a.787.787,0,0,0,.814.75h.814a.787.787,0,0,0,.815-.75v-.825a2.692,2.692,0,0,0,2.508-2.953,2.843,2.843,0,0,0-2.182-2.236l-2.544-.67a.4.4,0,0,1-.311-.38.413.413,0,0,1,.427-.394h1.669a1.406,1.406,0,0,1,.526.1A.672.672,0,0,0,16.28,3.8l.891-.82a.53.53,0,0,0,.1-.122.536.536,0,0,0-.18-.74,3.929,3.929,0,0,0-1.618-.539V.75A.787.787,0,0,0,14.66,0h-.814a.787.787,0,0,0-.814.75v.825a2.693,2.693,0,0,0-2.508,2.953A2.845,2.845,0,0,0,12.706,6.764ZM26.5,15.38a1.552,1.552,0,0,0-2,0l-4.331,3.464a2.983,2.983,0,0,1-1.875.656H12.75a.75.75,0,0,1,0-1.5h3.67a1.556,1.556,0,0,0,1.559-1.247A1.463,1.463,0,0,0,18,16.5,1.5,1.5,0,0,0,16.5,15H9a5.515,5.515,0,0,0-3.473,1.232L3.347,18H.75a.75.75,0,0,0-.75.75v4.5A.75.75,0,0,0,.75,24H17.474a3,3,0,0,0,1.875-.656l7.089-5.672a1.5,1.5,0,0,0,.06-2.292Z" transform="translate(0.15 0.15)" fill="#e1c497" stroke="#a47b51" stroke-width="0.3"/>
</svg>
