<svg xmlns="http://www.w3.org/2000/svg" width="27.301" height="24.3" viewBox="0 0 27.301 24.3">
  <g id="Group_519" data-name="Group 519" transform="translate(-313.85 -408.85)">
    <path id="FontAwsome_hand-holding-usd_" data-name="FontAwsome (hand-holding-usd)" d="M26.5,15.38a1.552,1.552,0,0,0-2,0l-4.331,3.464a2.983,2.983,0,0,1-1.875.656H12.75a.75.75,0,0,1,0-1.5h3.67a1.556,1.556,0,0,0,1.559-1.247A1.463,1.463,0,0,0,18,16.5,1.5,1.5,0,0,0,16.5,15H9a5.515,5.515,0,0,0-3.473,1.232L3.347,18H.75a.75.75,0,0,0-.75.75v4.5A.75.75,0,0,0,.75,24H17.474a3,3,0,0,0,1.875-.656l7.089-5.672a1.5,1.5,0,0,0,.06-2.292Z" transform="translate(314 409)" fill="#e1c497" stroke="#a47b51" stroke-width="0.3"/>
    <path id="FontAwsome_hourglass-end_" data-name="FontAwsome (hourglass-end)" d="M8.495,1.51A.566.566,0,0,0,9.061.944V.566A.566.566,0,0,0,8.495,0H.566A.566.566,0,0,0,0,.566V.944a.566.566,0,0,0,.566.566A4.683,4.683,0,0,0,3.418,6.041,4.683,4.683,0,0,0,.566,10.571.566.566,0,0,0,0,11.138v.378a.566.566,0,0,0,.566.566H8.495a.566.566,0,0,0,.566-.566v-.378a.566.566,0,0,0-.566-.566A4.683,4.683,0,0,0,5.643,6.041,4.683,4.683,0,0,0,8.495,1.51Zm-3.964,3.4c-1.364,0-2.454-1.57-2.454-3.4H6.985C6.985,3.349,5.887,4.908,4.531,4.908Z" transform="translate(323.939 409)" fill="#e1c497" stroke="#a47b51" stroke-width="0.3"/>
  </g>
</svg>
