<svg xmlns="http://www.w3.org/2000/svg" width="17.227" height="17.227" viewBox="0 0 17.227 17.227">
  <path id="FontAwsome_external-link-alt_" data-name="FontAwsome (external-link-alt)" d="M14.282,10.579H13.224a.529.529,0,0,0-.529.529v3.7H2.116V4.232H6.876A.529.529,0,0,0,7.405,3.7V2.645a.529.529,0,0,0-.529-.529H1.587A1.587,1.587,0,0,0,0,3.7V15.34a1.587,1.587,0,0,0,1.587,1.587H13.224a1.587,1.587,0,0,0,1.587-1.587V11.108A.529.529,0,0,0,14.282,10.579ZM16.133,0H11.9a.8.8,0,0,0-.562,1.355l1.181,1.181L4.463,10.591a.793.793,0,0,0,0,1.124l.749.748a.793.793,0,0,0,1.124,0L14.39,4.408l1.181,1.18a.8.8,0,0,0,1.355-.562V.793A.793.793,0,0,0,16.133,0Z" transform="translate(0.15 0.15)" fill="#e1c497" stroke="#a1784c" stroke-width="0.3"/>
</svg>
