<svg xmlns="http://www.w3.org/2000/svg" width="24.3" height="24.3" viewBox="0 0 24.3 24.3">
  <path id="FontAwsome_plus-circle_" data-name="FontAwsome (plus-circle)" d="M20,8A12,12,0,1,0,32,20,12,12,0,0,0,20,8Zm6.968,13.355a.582.582,0,0,1-.581.581H21.935v4.452a.582.582,0,0,1-.581.581h-2.71a.582.582,0,0,1-.581-.581V21.935H13.613a.582.582,0,0,1-.581-.581v-2.71a.582.582,0,0,1,.581-.581h4.452V13.613a.582.582,0,0,1,.581-.581h2.71a.582.582,0,0,1,.581.581v4.452h4.452a.582.582,0,0,1,.581.581Z" transform="translate(-7.85 -7.85)" fill="#e1c497" stroke="#a47b51" stroke-width="0.3"/>
</svg>
