<svg xmlns="http://www.w3.org/2000/svg" xmlns:xlink="http://www.w3.org/1999/xlink" width="112" height="29.745" viewBox="0 0 112 29.745">
  <defs>
    <linearGradient id="linear-gradient" x1="0.5" x2="0.5" y2="1" gradientUnits="objectBoundingBox">
      <stop offset="0" stop-color="#906135"/>
      <stop offset="0.356" stop-color="#c1925b"/>
      <stop offset="0.703" stop-color="#d8b074"/>
      <stop offset="1" stop-color="#d5b878"/>
      <stop offset="1" stop-color="#ac7b43"/>
    </linearGradient>
    <linearGradient id="linear-gradient-2" x1="0.5" x2="0.5" y2="1" gradientUnits="objectBoundingBox">
      <stop offset="0" stop-color="#ffab1a"/>
      <stop offset="0.523" stop-color="#f6b426"/>
      <stop offset="1" stop-color="#7d6506"/>
    </linearGradient>
    <filter id="Path_6502" x="90" y="0" width="22" height="20.745" filterUnits="userSpaceOnUse">
      <feOffset dy="3" input="SourceAlpha"/>
      <feGaussianBlur stdDeviation="3" result="blur"/>
      <feFlood flood-opacity="0.161"/>
      <feComposite operator="in" in2="blur"/>
      <feComposite in="SourceGraphic"/>
    </filter>
  </defs>
  <g id="Group_521" data-name="Group 521" transform="translate(-261 -328.255)">
    <path id="Rectangle_381" data-name="Rectangle 381" d="M3,0H103a0,0,0,0,1,0,0V18a3,3,0,0,1-3,3H3a3,3,0,0,1-3-3V3A3,3,0,0,1,3,0Z" transform="translate(261 337)" fill="url(#linear-gradient)"/>
    <g transform="matrix(1, 0, 0, 1, 261, 328.25)" filter="url(#Path_6502)">
      <path id="Path_6502-2" data-name="Path 6502" d="M0-.109,4,2.636H0Z" transform="translate(99 6.11)" fill="url(#linear-gradient-2)"/>
    </g>
  </g>
</svg>
